<?xml version="1.0" encoding="UTF-8" standalone="no"?>
<!-- Created with Inkscape (http://www.inkscape.org/) -->

<svg
   version="1.1"
   id="svg1"
   width="1024"
   height="1024"
   viewBox="0 0 1024 1024"
   sodipodi:docname="resPublica.svg"
   inkscape:version="1.4.2 (2aeb623e1d, 2025-05-12)"
   xmlns:inkscape="http://www.inkscape.org/namespaces/inkscape"
   xmlns:sodipodi="http://sodipodi.sourceforge.net/DTD/sodipodi-0.dtd"
   xmlns="http://www.w3.org/2000/svg"
   xmlns:svg="http://www.w3.org/2000/svg">
  <defs
     id="defs1" />
  <sodipodi:namedview
     id="namedview1"
     pagecolor="#ffffff"
     bordercolor="#000000"
     borderopacity="0.25"
     inkscape:showpageshadow="2"
     inkscape:pageopacity="0.0"
     inkscape:pagecheckerboard="0"
     inkscape:deskcolor="#d1d1d1"
     inkscape:zoom="0.5"
     inkscape:cx="318"
     inkscape:cy="546"
     inkscape:window-width="984"
     inkscape:window-height="778"
     inkscape:window-x="866"
     inkscape:window-y="137"
     inkscape:window-maximized="0"
     inkscape:current-layer="g1" />
  <g
     inkscape:groupmode="layer"
     inkscape:label="Image"
     id="g1">
    <path
       style="fill:#000000;stroke-width:1.01758"
       d="M 0,521 V 0 h 521 521 v 521 521.0001 H 521 0 Z m 338.02269,241.09326 c 11.58337,-3.37205 19.92327,-11.44308 24.29124,-23.50809 2.21396,-6.11534 2.36009,-8.25185 2.91804,-42.66247 0.63493,-39.15834 0.48104,-38.16203 6.36433,-41.20439 1.57985,-0.81701 2.87245,-2.16052 2.87245,-2.98567 0,-1.26475 -2.79487,-1.50022 -17.80762,-1.50022 -17.12923,0 -17.80761,0.0773 -17.80761,2.03516 0,1.17479 0.67838,2.03515 1.60463,2.03515 0.88256,0 2.96933,1.36468 4.63726,3.03259 l 3.03262,3.03269 -0.31255,36.90725 c -0.33816,39.9319 -0.20093,38.93112 -6.20883,45.27958 -4.44753,4.69958 -11.38133,6.73372 -21.04647,6.17426 -9.62037,-0.55692 -14.64322,-2.92126 -18.84827,-8.87206 l -3.05273,-4.32013 -0.291,-37.17834 c -0.31991,-40.87295 -0.39796,-40.2966 5.89726,-43.55203 1.67374,-0.86545 3.04315,-2.24875 3.04315,-3.0739 0,-1.27533 -3.27863,-1.50022 -21.87793,-1.50022 -20.7286,0 -21.87793,0.10074 -21.87793,1.91172 0,1.14488 1.16989,2.3963 2.9167,3.1198 1.60419,0.66448 3.41726,2.20824 4.02906,3.43066 0.71783,1.43418 1.24626,14.8541 1.48991,37.83763 0.3527,33.27022 0.52361,36.06103 2.59571,42.38548 2.37353,7.24455 8.60368,15.30153 14.70677,19.01915 11.48972,6.9987 32.74152,8.81131 48.73181,4.1564 z m -10.86412,-10.09132 c -0.3565,-0.57687 0.052,-0.74742 0.95752,-0.39991 1.76287,0.67638 2.08542,1.40578 0.6217,1.40578 -0.52664,0 -1.23729,-0.45262 -1.57922,-1.00587 z m 401.42737,11.10829 c 3.63784,-0.5498 9.01828,-1.47743 11.95654,-2.06162 l 5.34229,-1.06204 v -14.17395 c 0,-7.79567 -0.29958,-14.17395 -0.66572,-14.17395 -0.36614,0 -3.12786,2.7208 -6.13714,6.04614 -9.18305,10.1476 -19.61992,13.6614 -33.58257,11.30632 -22.19489,-3.74367 -36.42296,-25.6154 -33.26176,-51.13086 1.92901,-15.56986 9.0885,-26.47515 20.99008,-31.972 5.88968,-2.72009 7.25549,-2.93612 18.56824,-2.93612 11.41803,0 12.51281,0.17746 16.85989,2.73311 5.55176,3.26378 10.65139,8.28787 12.38266,12.19903 1.08926,2.46081 3.55422,4.5154 4.3942,3.66267 0.15078,-0.15314 0.40886,-6.9181 0.57349,-15.03329 l 0.29933,-14.75488 -6.06142,-1.40802 c -3.93854,-0.91491 -13.01095,-1.44954 -25.90421,-1.52637 -18.1465,-0.10817 -20.49518,0.0855 -27.47461,2.2637 -26.05141,8.13106 -41.52576,27.1616 -43.35433,53.31764 -1.47804,21.14191 6.16784,36.87123 23.58563,48.52097 15.64859,10.4664 36.62595,13.94062 61.48941,10.18352 z m -521,-2.85594 c 0,-1.15454 -1.18078,-2.40077 -2.98134,-3.14655 -5.13667,-2.12766 -6.17687,-6.05704 -6.17687,-23.33327 v -15.36432 h 9.4532 c 15.6122,0 25.32937,-3.5487 33.99959,-12.41648 6.4667,-6.61416 8.92423,-12.87135 8.91147,-22.68996 -0.013,-10.05998 -2.76526,-16.93189 -9.13129,-22.79986 -10.00172,-9.21925 -15.2172,-10.27143 -50.91489,-10.27143 -23.27607,0 -27.93331,0.23771 -27.93331,1.42583 0,0.78425 1.60973,2.37564 3.57717,3.53649 1.96745,1.16086 4.02805,3.29645 4.57911,4.74588 0.60161,1.58234 0.99593,19.98951 0.98692,46.07045 -0.0163,46.99898 0.0146,46.7223 -5.61373,50.52774 -1.86638,1.2619 -2.92041,2.75855 -2.7089,3.84644 0.31688,1.62976 2.19477,1.78076 22.14955,1.78076 20.6556,0 21.80332,-0.10074 21.80332,-1.91172 z m -9.15821,-74.78467 c 0,-23.44021 -0.68982,-21.53999 7.63184,-21.02245 7.95869,0.49505 15.31051,6.20235 17.8323,13.84344 1.98677,6.01999 0.87104,15.82375 -2.3243,20.42351 -3.88164,5.58762 -6.337,6.76007 -15.25361,7.28362 l -7.88623,0.463 z m -20.86035,2.41319 c -0.34589,-0.55967 -0.14396,-1.01758 0.44873,-1.01758 0.5927,0 1.07764,0.45791 1.07764,1.01758 0,0.55967 -0.20193,1.01758 -0.44873,1.01758 -0.24681,0 -0.73174,-0.45791 -1.07764,-1.01758 z m 274.23731,72.70382 c 20.77378,-4.86585 31.71799,-25.14537 23.54333,-43.62551 -2.61343,-5.90805 -8.31006,-11.14237 -15.14609,-13.91701 -2.93948,-1.193 -5.31652,-2.45938 -5.28233,-2.81411 0.0342,-0.35473 1.98031,-2.01908 4.3247,-3.69849 12.99379,-9.30819 12.94802,-30.08286 -0.0879,-39.8915 -7.11248,-5.35165 -9.3552,-5.67269 -42.71257,-6.11402 -29.15671,-0.38566 -30.78058,-0.31016 -30.75972,1.43041 0.0127,1.06378 1.40341,2.48035 3.30249,3.36391 1.80426,0.8395 3.84819,2.67114 4.54208,4.07031 1.64683,3.32077 1.84801,87.64706 0.22025,92.31652 -0.63653,1.82594 -2.49502,3.83994 -4.5791,4.96232 -1.96889,1.06032 -3.50774,2.68041 -3.50774,3.6928 0,1.68582 1.94553,1.80274 29.76416,1.78869 23.03549,-0.0112 31.25942,-0.3652 36.37842,-1.56432 z M 423.1002,748.30721 c -1.54693,-0.4629 -1.77137,-2.65924 -2.03515,-19.91645 l -0.2965,-19.39615 8.3207,0.52018 c 15.12076,0.94543 21.96435,7.41204 21.8878,20.68207 -0.0453,7.84085 -2.40615,13.3318 -6.82393,15.87056 -3.07623,1.76794 -17.50152,3.30255 -21.05292,2.23979 z m -16.06895,-51.68228 c 0,-0.19375 0.68687,-0.92234 1.52637,-1.61907 0.87979,-0.73011 1.52636,-0.82902 1.52636,-0.23343 0,0.56831 -0.68686,1.2969 -1.52636,1.61896 -0.8395,0.32217 -1.52637,0.42728 -1.52637,0.23354 z m 14.24609,-16.37395 v -16.79004 l 3.30713,-0.10777 c 10.45118,-0.34078 14.37905,1.47712 17.259,7.98769 1.59029,3.5951 1.94997,6.02152 1.54864,10.44727 -0.99617,10.98618 -5.58873,15.25288 -16.41748,15.25288 h -5.69729 z m 149.03535,80.64306 c 0.2228,-0.69958 0.59156,-7.33928 0.81948,-14.75488 0.45938,-14.947 -0.23879,-16.42717 -4.21398,-8.93383 -3.90743,7.36554 -8.57719,9.05645 -26.32981,9.53359 l -14.50049,0.38973 v -24.08628 c 0,-18.97366 -0.26999,-23.93384 -1.27197,-23.36817 -1.01758,0.57453 -1.01758,0.44407 0,-0.65227 0.91604,-0.98684 1.27197,-6.31051 1.27197,-19.02494 0,-19.61433 0.69317,-22.44411 6.08216,-24.82942 1.73815,-0.76939 3.07604,-2.13874 3.07604,-3.14838 0,-1.64858 -1.69224,-1.78677 -21.87793,-1.78677 -21.19954,0 -21.87793,0.0631 -21.87793,2.03516 0,1.11933 0.66134,2.03515 1.46963,2.03515 0.80829,0 2.66386,1.0303 4.12349,2.28955 l 2.65388,2.28955 0.0446,45.95353 c 0.0245,25.2745 -0.238,46.8438 -0.58334,47.9319 -0.34534,1.08799 -2.22096,2.83619 -4.16804,3.8848 -1.99335,1.07345 -3.54016,2.69455 -3.54016,3.7102 0,1.69538 2.35507,1.80375 39.20869,1.80375 30.47254,0 39.29896,-0.28339 39.61377,-1.27197 z m -62.54121,-39.43115 c 0,-0.55967 0.48494,-1.01758 1.07764,-1.01758 0.5927,0 0.79463,0.45791 0.44873,1.01758 -0.34589,0.55967 -0.83083,1.01758 -1.07763,1.01758 -0.24681,0 -0.44874,-0.45791 -0.44874,-1.01758 z m 4.07032,-4.07031 c 0,-0.55967 0.45791,-1.01758 1.01757,-1.01758 0.55967,0 1.01758,0.45791 1.01758,1.01758 0,0.55966 -0.45791,1.01757 -1.01758,1.01757 -0.55966,0 -1.01757,-0.45791 -1.01757,-1.01757 z m 15.26367,-65.125 c 0,-0.55967 0.48494,-1.01758 1.07763,-1.01758 0.5927,0 0.79463,0.45791 0.44874,1.01758 -0.3459,0.55966 -0.83084,1.01758 -1.07764,1.01758 -0.2468,0 -0.44873,-0.45792 -0.44873,-1.01758 z m 101.14015,108.28883 c 0.85439,-2.22646 0.9692,-2.06813 -2.56025,-3.53008 -5.84939,-2.42296 -5.98029,-3.54443 -5.98029,-51.23699 0,-25.89635 0.4015,-44.26954 1.00193,-45.84872 0.55106,-1.44943 2.61165,-3.58502 4.5791,-4.74588 1.96744,-1.16085 3.57717,-2.75224 3.57717,-3.53649 0,-1.17846 -3.7947,-1.42583 -21.87793,-1.42583 -20.45527,0 -21.87793,0.12007 -21.87793,1.8467 0,1.10356 1.41297,2.52044 3.51144,3.52123 2.66215,1.26943 3.75523,2.60714 4.51943,5.53074 0.60556,2.31672 0.929,21.19198 0.81014,47.27902 l -0.19785,43.42281 -2.44737,2.6051 c -1.34605,1.43285 -3.29077,2.87282 -4.32158,3.19998 -1.03082,0.32715 -1.87421,1.47986 -1.87421,2.56144 0,1.881 0.92549,1.96657 21.26027,1.96657 18.44788,0 21.34198,-0.21287 21.87793,-1.6096 z m -25.33058,-82.84938 c -0.3459,-0.55967 -0.14397,-1.01758 0.44873,-1.01758 0.5927,0 1.07764,0.45791 1.07764,1.01758 0,0.55967 -0.20193,1.01758 -0.44874,1.01758 -0.2468,0 -0.73174,-0.45791 -1.07763,-1.01758 z m 190.7959,82.47939 c 0,-1.152 -1.16005,-2.5356 -2.77467,-3.30947 -4.94135,-2.36841 -5.1851,-5.67972 -1.25618,-17.06509 l 3.49274,-10.12144 17.50823,-0.29785 17.50821,-0.29784 1.20432,4.30628 c 0.66237,2.36842 1.59978,4.06177 2.08315,3.76301 0.48337,-0.29876 0.64226,0.0733 0.35309,0.82698 -0.28917,0.75352 0.17399,3.35343 1.02923,5.77751 2.54893,7.22439 2.10013,10.00391 -2.00652,12.42686 -2.08462,1.22995 -3.56152,2.90366 -3.56152,4.03602 0,1.84508 1.0837,1.93462 23.40429,1.93462 22.5385,0 23.4043,-0.0733 23.4043,-1.98743 0,-1.27309 -1.2872,-2.59818 -3.58156,-3.68699 -6.37523,-3.02516 -5.75526,-1.55954 -30.47602,-72.04565 -6.45339,-18.40056 -11.73344,-33.63859 -11.73344,-33.86235 0,-0.22377 -7.78447,-0.33875 -17.29882,-0.25552 -15.96358,0.13982 -17.29883,0.29378 -17.29883,1.99456 0,1.01361 0.91631,2.13376 2.03623,2.4893 4.91805,1.56086 4.68398,2.55992 -10.76531,45.9464 -19.08921,53.60866 -19.1803,53.80627 -26.01181,56.42776 -1.9665,0.75463 -2.54871,1.56076 -2.17087,3.00562 0.48672,1.86125 1.55888,1.9743 18.71403,1.9743 17.3492,0 18.19773,-0.0926 18.19773,-1.97959 z m -17.7422,-27.23192 c -0.55222,-1.45025 -0.43534,-1.56707 0.56964,-0.56964 0.69543,0.69033 1.00808,1.51141 0.69478,1.82472 -0.3133,0.31331 -0.88229,-0.25144 -1.26442,-1.25508 z m 27.806,-34.64151 c 3.25833,-9.37444 6.11806,-17.65692 6.35495,-18.40555 0.42326,-1.33761 12.09938,31.69176 12.08222,34.17801 -0.006,0.94624 -3.12711,1.27197 -12.18509,1.27197 h -12.1763 z M 631.39018,623.64148 c 21.94087,-5.90002 33.05325,-27.07867 23.86059,-45.47476 -3.57068,-7.14563 -7.60789,-10.93265 -21.36662,-20.04252 -20.76023,-13.74575 -23.56487,-17.29333 -19.85399,-25.11342 2.35238,-4.95734 6.99382,-7.39026 13.95089,-7.31303 7.26842,0.0804 11.61591,2.51779 15.63711,8.76532 4.8849,7.5894 5.70706,6.58688 5.37561,-6.55453 l -0.28772,-11.40776 -6.10546,-1.95111 c -9.13854,-2.92024 -25.5397,-2.8133 -33.27647,0.21705 -9.53366,3.73401 -17.95362,12.58683 -19.75612,20.77172 -0.27274,1.2384 -0.50654,5.08413 -0.51959,8.54613 -0.0485,12.88671 5.71936,20.19313 27.59425,34.95483 15.48019,10.44646 18.32609,13.48566 18.32609,19.57067 0,7.3747 -6.93506,12.30995 -17.29883,12.31046 -10.62923,6.1e-4 -19.00585,-4.54105 -23.66494,-12.83075 -4.01061,-7.13597 -4.91644,-5.24775 -4.60239,9.59373 l 0.28393,13.41779 5.08789,1.33394 c 11.83268,3.10239 27.62937,3.62278 36.61577,1.20624 z M 422.29492,621.9122 c 0,-1.0248 -1.12287,-2.46416 -2.49526,-3.19865 -3.83314,-2.05144 -4.62779,-6.10079 -4.62779,-23.58217 v -16.12943 l 3.81592,0.0143 c 7.45856,0.0275 7.63404,0.2144 15.91789,16.98114 13.61759,27.56253 13.88264,27.77846 34.09723,27.77846 12.49582,0 13.32912,-0.12293 13.32912,-1.96657 0,-1.15038 -0.95021,-2.26157 -2.28955,-2.67746 -6.40984,-1.99018 -10.68889,-7.90017 -23.97701,-33.11616 l -6.22459,-11.81195 5.46054,-3.76086 c 11.90095,-8.19649 16.4755,-21.7543 12.199,-36.15476 -2.01481,-6.7846 -8.81833,-14.30236 -15.57354,-17.20836 -5.11434,-2.20011 -20.81822,-4.50614 -26.07043,-3.82833 -1.67901,0.21664 -12.32542,0.4462 -23.6587,0.51001 -17.42603,0.0977 -20.60595,0.3475 -20.60595,1.61621 0,0.82516 1.36015,2.20367 3.02257,3.06332 1.66241,0.85965 3.49405,2.44402 4.07031,3.52072 0.673,1.25752 1.04774,17.94672 1.04774,46.66084 0,43.35412 -0.0622,44.78219 -2.0617,47.3241 -1.13393,1.4416 -2.96557,2.90793 -4.07032,3.25859 -1.10473,0.35066 -2.0086,1.5225 -2.0086,2.60409 0,1.87814 0.91492,1.96657 20.35156,1.96657 19.04712,0 20.35156,-0.11937 20.35156,-1.86319 z m 29.00098,-9.33017 c 0.34589,-0.55967 0.83083,-1.01758 1.07763,-1.01758 0.24681,0 0.44874,0.45791 0.44874,1.01758 0,0.55967 -0.48494,1.01758 -1.07764,1.01758 -0.5927,0 -0.79463,-0.45791 -0.44873,-1.01758 z m -35.36084,-46.36279 c -0.41975,-0.43176 -0.76319,-9.46633 -0.76319,-20.07702 v -19.29196 l 8.67285,0.45526 c 10.13612,0.53199 12.98859,2.08309 16.51221,8.97891 2.99474,5.86084 3.11265,14.94975 0.2695,20.77274 -3.04327,6.23277 -7.76547,8.93382 -16.58562,9.48667 -4.03841,0.25318 -7.686,0.10705 -8.10575,-0.3246 z m 153.93388,54.94596 c 0.54581,-1.4356 0.99239,-7.31211 0.99239,-13.05889 0,-8.78943 -0.25217,-10.44879 -1.58794,-10.44879 -0.87337,0 -2.27746,1.33343 -3.12021,2.96318 -1.98448,3.8375 -8.6006,6.82246 -15.1855,6.85115 -2.82633,0.0122 -5.68827,0.57178 -6.35987,1.24338 -0.94973,0.94971 -1.22109,0.93862 -1.22109,-0.0499 0,-0.87827 -1.57332,-1.19962 -5.08789,-1.03925 -2.79834,0.12771 -5.08789,0.63527 -5.08789,1.12798 0,0.49261 -0.57239,0.53739 -1.27198,0.0997 -0.69958,-0.43797 -1.95883,-0.80847 -2.79834,-0.82322 -1.29304,-0.0224 -1.52636,-2.55443 -1.52636,-16.56129 V 574.935 l 11.52602,-10e-4 c 11.45067,-10e-4 11.54599,0.0183 14.57877,3.05141 1.67901,1.67901 3.47542,3.05274 3.99203,3.05274 0.52546,0 0.93931,-5.78046 0.93931,-13.11964 0,-10.72324 -0.27881,-13.22668 -1.52637,-13.70535 -0.8395,-0.32217 -1.52636,-0.1214 -1.52636,0.4461 0,0.56761 -1.12397,2.15595 -2.4977,3.52968 -2.36343,2.36312 -3.12924,2.49734 -14.24635,2.49734 h -11.74867 l 0.25466,-15.51807 0.25466,-15.51806 12.71972,0.0163 c 14.22237,0.0173 18.11912,1.24246 21.20338,6.66381 2.13512,3.75303 4.22811,3.84584 4.26205,0.18886 0.0142,-1.53908 0.29973,-7.26296 0.63432,-12.71972 l 0.60836,-9.92139 h -37.09754 c -33.28562,0 -37.09755,0.16688 -37.09755,1.62375 0,0.89303 1.5081,2.34287 3.35134,3.22186 2.04448,0.97494 3.76396,2.78185 4.40951,4.63364 0.66737,1.91437 1.05817,18.78174 1.05817,45.67236 0,46.74815 -0.0485,47.1501 -5.98714,49.60999 -1.97956,0.81997 -2.97968,1.92821 -2.88418,3.19601 0.14102,1.87214 1.4907,1.94083 38.11403,1.94083 h 37.96781 z M 343.33349,520.44501 c 9.59434,-9.59434 8.51332,-39.80857 -2.18144,-60.97043 l -2.55209,-5.04983 -2.40731,3.01467 c -3.03961,3.80656 -6.38006,13.53715 -7.15905,20.85394 -0.63152,5.93167 2.02439,18.95189 5.85742,28.71494 1.04369,2.65842 1.67068,4.8335 1.39326,4.8335 -0.62398,0 -8.51916,-5.52891 -15.84803,-11.09822 -5.92612,-4.50329 -18.55918,-11.35556 -24.32102,-13.19178 -1.95883,-0.62429 -5.73659,-1.33812 -8.39502,-1.5862 -5.73653,-0.53545 -6.05713,0.37742 -2.15854,6.14586 12.83651,18.9932 29.78599,29.23818 49.31564,29.80843 5.13148,0.14979 7.19062,-0.20932 8.45618,-1.47488 z m 369.42677,0.0173 c 13.57881,-3.5369 28.0365,-13.97053 36.10854,-26.05855 5.53669,-8.29122 5.45118,-9.3318 -0.69448,-8.45108 -11.63142,1.66699 -22.6908,7.34528 -41.38538,21.24906 -5.11423,3.80361 -7.77178,5.28194 -7.27184,4.04518 9.2423,-22.86478 9.84882,-35.4801 2.4205,-50.34549 -3.72642,-7.45722 -4.35051,-7.16202 -8.73708,4.13177 -5.06672,13.04495 -5.827,17.03395 -5.81827,30.52735 0.009,14.0615 1.92113,22.14565 5.89646,24.93005 2.83726,1.98733 11.79304,1.9743 19.48155,-0.0285 z M 609.02051,478.98644 c 15.30759,-4.41243 29.18975,-14.44269 33.92165,-24.50939 4.7482,-10.10129 5.90604,-19.02291 2.95504,-22.76953 -1.45367,-1.84558 -42.9381,-1.84558 -41.82931,0 0.61133,1.01758 0.44985,1.01758 -0.80732,1e-4 -1.23901,-1.00282 -23.72226,-1.21814 -106.2642,-1.01758 l -104.69271,0.2543 -1.19448,2.54394 c -1.58837,3.38284 -0.23124,11.61118 3.12375,18.93947 3.5346,7.72057 13.47378,17.39621 22.01705,21.43335 5.85031,2.76456 15.32976,5.53003 23.34377,6.81014 1.39917,0.22346 38.71885,0.33183 82.93262,0.24076 72.85678,-0.15009 80.96071,-0.33051 86.49414,-1.92556 z M 438.38538,466.37325 c 0.73456,-0.29398 1.61223,-0.25775 1.95036,0.0804 0.33813,0.33814 -0.26288,0.57859 -1.33557,0.53443 -1.18543,-0.0488 -1.42655,-0.28991 -0.61479,-0.61472 z m 35.80603,-15.58614 c 0,-0.55967 0.45791,-1.01758 1.01757,-1.01758 0.55967,0 1.01758,0.45791 1.01758,1.01758 0,0.55967 -0.45791,1.01758 -1.01758,1.01758 -0.55966,0 -1.01757,-0.45791 -1.01757,-1.01758 z m 32.5625,-1.07762 c 0,-0.59274 0.45791,-0.79462 1.01757,-0.44875 0.55967,0.34588 1.01758,0.83085 1.01758,1.07762 0,0.24686 -0.45791,0.44875 -1.01758,0.44875 -0.55966,0 -1.01757,-0.48488 -1.01757,-1.07762 z m 8.14062,0 c 0,-0.59274 0.45791,-0.79462 1.01758,-0.44875 0.55967,0.34588 1.01758,0.83085 1.01758,1.07762 0,0.24686 -0.45791,0.44875 -1.01758,0.44875 -0.55967,0 -1.01758,-0.48488 -1.01758,-1.07762 z m 37.1416,-6.04543 c 0.3459,-0.55967 0.83083,-1.01758 1.07764,-1.01758 0.2468,0 0.44873,0.45791 0.44873,1.01758 0,0.55967 -0.48494,1.01758 -1.07764,1.01758 -0.59269,0 -0.79462,-0.45791 -0.44873,-1.01758 z m 41.21192,-3.05273 c 0,-0.55967 0.45791,-1.01758 1.01757,-1.01758 0.55967,0 1.01758,0.45791 1.01758,1.01758 0,0.55967 -0.45791,1.01758 -1.01758,1.01758 -0.55966,0 -1.01757,-0.45791 -1.01757,-1.01758 z m -166.88282,-0.95754 c 0,-0.5266 0.45791,-1.24053 1.01758,-1.58641 0.55967,-0.34587 1.01758,0.0855 1.01758,0.95754 0,0.87258 -0.45791,1.58641 -1.01758,1.58641 -0.55967,0 -1.01758,-0.43085 -1.01758,-0.95754 z m -114.32059,28.97106 c 3.47434,-2.43344 8.15406,-10.68234 10.697,-18.85532 2.03844,-6.55147 2.36933,-9.72041 2.33753,-22.38672 -0.0203,-8.11518 -0.52187,-15.87564 -1.11444,-17.24561 l -1.07741,-2.49062 -4.90296,5.03457 c -2.69663,2.76913 -6.31632,8.01109 -8.04376,11.64893 -2.97938,6.27428 -3.15772,7.35892 -3.47008,21.10386 l -0.32929,14.48949 -2.26042,-2.78735 c -1.24324,-1.53308 -4.98729,-6.62718 -8.32013,-11.32015 -3.33284,-4.69296 -8.69333,-10.91922 -11.9122,-13.83601 -6.08084,-5.51028 -20.31491,-13.60664 -20.88975,-11.88205 -0.68714,2.06141 3.14482,14.17069 6.5244,20.61756 6.46442,12.33141 16.92751,22.14229 28.84268,27.04458 6.5433,2.6922 10.92162,2.9642 13.91883,0.86484 z m 429.55413,-2.61376 c 8.46782,-4.13319 19.71952,-15.19152 24.29069,-23.8734 3.2892,-6.24701 7.93075,-20.06562 7.3078,-21.75643 -0.54452,-1.47793 -12.45178,4.80287 -18.91341,9.97644 -3.35714,2.68783 -9.76233,9.89096 -15.01334,16.88335 l -9.15821,12.19547 -0.54106,-14.75488 c -0.50686,-13.82207 -0.74176,-15.18277 -3.71543,-21.523 -3.38012,-7.20689 -11.07138,-15.96142 -12.64252,-14.39028 -0.50767,0.50767 -1.38259,5.77323 -1.94427,11.70133 -1.86783,19.71303 2.46401,37.44637 11.34695,46.45122 3.02626,3.0678 3.81334,3.36391 7.76035,2.91903 2.41588,-0.27231 7.46598,-1.99527 11.22245,-3.82885 z m 193.04674,1.05727 c 0.34589,-0.55967 0.14396,-1.01758 -0.44873,-1.01758 -0.5927,0 -1.07764,0.45791 -1.07764,1.01758 0,0.55967 0.20193,1.01758 0.44873,1.01758 0.24681,0 0.73174,-0.45791 1.07764,-1.01758 z m -633.71236,-58.6239 c 7.97878,-6.08573 15.00958,-16.05952 18.69938,-26.52663 2.08996,-5.92872 5.16381,-20.82789 4.44526,-21.5464 -0.20994,-0.20993 -2.5807,0.67831 -5.26833,1.974 -6.23418,3.00521 -14.63961,11.36787 -17.89631,17.80507 -3.01403,5.95761 -6.83307,17.94682 -6.83307,21.45136 0,4.48314 -1.67958,1.60543 -5.12783,-8.78577 -1.86285,-5.61367 -3.78774,-10.20672 -4.27753,-10.20672 -0.4898,0 -0.60962,-0.45455 -0.26627,-1.01004 1.2251,-1.98225 -7.9497,-17.53674 -14.1938,-24.06349 -8.53567,-8.92202 -9.15417,-8.7007 -8.33299,2.98151 1.64775,23.44123 11.92972,43.31809 25.99157,50.24648 5.03181,2.47922 7.29585,2.07708 13.05992,-2.31937 z m 452.00173,-0.10654 c 12.31086,-9.05349 20.52037,-27.22377 22.04662,-48.79613 0.7573,-10.7038 -0.37707,-10.9989 -8.69164,-2.26116 -7.31416,7.68648 -13.87249,19.91462 -19.00281,35.43126 l -3.8449,11.62888 -2.31746,-8.51926 c -3.02884,-11.13444 -6.47385,-18.01083 -12.23181,-24.41506 -4.03548,-4.48844 -13.46209,-11.14462 -15.82501,-11.17423 -2.6471,-0.0336 1.74145,18.67795 6.80153,28.99904 4.17542,8.51673 13.17579,18.808 18.94513,21.66241 4.91987,2.43415 8.1236,1.85433 14.12035,-2.55575 z m 12.79266,-21.65823 c -0.3459,-0.55967 -0.14397,-1.01758 0.44873,-1.01758 0.5927,0 1.07764,0.45791 1.07764,1.01758 0,0.55966 -0.20193,1.01757 -0.44874,1.01757 -0.2468,0 -0.73174,-0.45791 -1.07763,-1.01757 z m -310.3186,18.87292 c 1.94638,-0.81325 6.16734,-3.62686 9.37991,-6.25251 7.26582,-5.93838 10.97858,-7.53252 17.54318,-7.53252 6.64282,0 10.74348,1.77292 18.36626,7.94087 6.97562,5.6442 11.46342,7.33287 19.40219,7.30051 6.56378,-0.0265 12.85301,-2.65933 18.46398,-7.7285 5.38021,-4.86067 11.39832,-7.46333 17.32028,-7.4905 6.14852,-0.0285 10.82813,1.92343 16.99833,7.08947 6.82542,5.71452 12.59344,8.10277 19.63448,8.12953 7.0853,0.0265 11.91705,-1.84883 18.02732,-6.99819 2.51962,-2.12338 6.04657,-4.61777 7.8377,-5.54315 4.88455,-2.52349 13.46424,-2.16571 20.65649,0.86148 7.30387,3.07421 8.57042,3.1317 11.19336,0.50879 5.59849,-5.59851 -0.0588,-17.28865 -10.68457,-22.07829 -3.83424,-1.72836 -10.74551,-1.84894 -119.1637,-2.0781 -129.77126,-0.27434 -122.3571,-0.68727 -130.30178,7.25747 -6.71082,6.71072 -7.11361,15.25177 -0.85379,18.10394 2.1676,0.98766 3.63368,0.74181 9.19334,-1.54133 11.93587,-4.90178 19.73632,-3.56305 30.35132,5.20868 2.69033,2.2231 6.34,4.50807 8.11039,5.07761 4.83979,1.5571 14.53017,1.43407 18.52531,-0.23526 z m -11.74488,-7.67956 c 0,-0.55967 0.48494,-1.01758 1.07764,-1.01758 0.5927,0 0.79462,0.45791 0.44873,1.01758 -0.3459,0.55966 -0.83083,1.01757 -1.07764,1.01757 -0.2468,0 -0.44873,-0.45791 -0.44873,-1.01757 z m 20.56584,-22.99808 c -0.72165,-0.78313 -0.86315,-1.4238 -0.31445,-1.4238 1.0567,0 2.5864,1.93564 1.98284,2.50904 -0.19597,0.18612 -0.94674,-0.30222 -1.66839,-1.08524 z m 53.71737,0.10257 c 0,-0.8395 0.44354,-1.52637 0.98564,-1.52637 0.5421,0 0.72207,0.68687 0.39992,1.52637 -0.32215,0.8395 -0.76569,1.52637 -0.98565,1.52637 -0.21995,0 -0.39991,-0.68687 -0.39991,-1.52637 z m 78.35351,0.50879 c 0,-0.55967 0.48494,-1.01758 1.07764,-1.01758 0.5927,0 0.79462,0.45791 0.44873,1.01758 -0.3459,0.55967 -0.83083,1.01758 -1.07764,1.01758 -0.2468,0 -0.44873,-0.45791 -0.44873,-1.01758 z M 303.96419,355.59837 c 10.48492,-5.22485 20.69238,-16.5972 28.47807,-31.72788 5.04734,-9.80894 5.44831,-11.91543 2.08655,-10.96135 -11.54733,3.27691 -25.64028,14.58525 -32.8169,26.33248 -2.23867,3.6644 -4.34712,6.67887 -4.68544,6.69882 -0.33834,0.0203 -0.87421,-5.57328 -1.19084,-12.42921 -0.42315,-9.16238 -1.28755,-14.89195 -3.26225,-21.62354 -2.64273,-9.00872 -9.51825,-23.40429 -11.17824,-23.40429 -1.42231,0 -3.50938,7.39291 -4.62769,16.39237 -2.3696,19.0689 3.3826,40.72154 13.1662,49.56043 4.91182,4.43755 7.09486,4.61838 14.03054,1.16217 z m 11.48503,-19.79759 c 0,-0.55967 0.45791,-1.01758 1.01758,-1.01758 0.55966,0 1.01757,0.45791 1.01757,1.01758 0,0.55967 -0.45791,1.01758 -1.01757,1.01758 -0.55967,0 -1.01758,-0.45791 -1.01758,-1.01758 z m 428.57627,20.60596 c 4.73425,-2.7788 10.45649,-12.27393 13.13325,-21.79235 3.68354,-13.09857 3.02316,-38.95371 -1.16814,-45.73536 -1.18725,-1.92098 -3.18196,0.66702 -7.5378,9.78015 -4.77015,9.9799 -6.7213,18.23062 -8.04051,34.00074 l -1.14178,13.64908 -3.98728,-6.01724 c -6.20287,-9.3609 -10.71806,-14.33707 -17.01974,-18.75753 -5.864,-4.11335 -15.63114,-9.10946 -17.84431,-9.12777 -2.59245,-0.0214 2.56181,11.63376 9.99789,22.60814 6.38131,9.41758 14.10327,16.67475 21.43207,20.14184 7.48037,3.53873 8.15886,3.60843 12.17635,1.2503 z m -98.7454,-7.51299 c 1.97896,-1.97898 2.11851,-2.95321 1.63907,-11.44398 -1.47373,-26.09946 -21.10435,-50.85286 -52.14475,-65.75224 -41.22741,-19.78925 -98.31702,-21.41524 -142.14469,-4.04874 -34.97045,13.85697 -56.0153,35.27597 -61.97823,63.08018 -1.61434,7.52743 -0.78221,17.17488 1.63377,18.9415 1.57369,1.15068 22.9676,1.38533 126.36307,1.38584 l 124.46866,5.1e-4 z M 529.14062,338.28469 c 0,-0.87257 0.46538,-1.29884 1.03418,-0.94726 0.5688,0.35157 0.77073,1.0654 0.44873,1.5864 -0.8723,1.41148 -1.48291,1.14823 -1.48291,-0.63914 z m -76.31835,-7.63184 c 0,-0.59274 0.45791,-0.79462 1.01757,-0.44875 0.55967,0.34588 1.01758,0.83085 1.01758,1.07762 0,0.24686 -0.45791,0.44875 -1.01758,0.44875 -0.55966,0 -1.01757,-0.48488 -1.01757,-1.07762 z m -34.08887,-2.99269 c -0.3459,-0.55967 -0.14397,-1.01758 0.44873,-1.01758 0.5927,0 1.07764,0.45791 1.07764,1.01758 0,0.55966 -0.20193,1.01757 -0.44874,1.01757 -0.2468,0 -0.73174,-0.45791 -1.07763,-1.01757 z m 178.12989,-8.05373 c -0.32764,-0.53005 -0.16197,-1.23188 0.36816,-1.55954 0.53013,-0.32766 1.23193,-0.162 1.55956,0.36816 0.32764,0.53016 0.16197,1.23198 -0.36816,1.55954 -0.53013,0.32766 -1.23193,0.162 -1.55956,-0.36816 z m -160.16964,-1.0536 c 0.43727,-1.31176 1.83298,-1.54743 1.95884,-0.33071 0.0419,0.40581 -0.47317,0.92091 -1.14478,1.14477 -0.6716,0.22387 -1.03792,-0.14246 -0.81406,-0.81406 z m 57.84932,-16.97595 c -8.36311,-5.87509 -16.28125,-13.52463 -16.28125,-15.72891 0,-0.932 0.70885,-2.28273 1.57524,-3.00175 2.27886,-1.89137 6.58968,0.45018 14.89751,8.09168 6.5412,6.01663 11.00186,11.7745 11.00186,14.20122 0,2.4374 -4.85016,0.89384 -11.19336,-3.56224 z m 53.00753,-4.4634 c -13.51794,-8.73713 -19.82944,-17.06346 -14.2715,-18.82744 4.87129,-1.5461 24.35381,15.93263 24.35381,21.84903 0,2.14302 -3.89989,0.97434 -10.08231,-3.02159 z m -104.39523,-0.99825 c -0.34589,-0.55966 -0.14396,-1.01757 0.44874,-1.01757 0.59269,0 1.07763,0.45791 1.07763,1.01757 0,0.55967 -0.20193,1.01758 -0.44873,1.01758 -0.2468,0 -0.73174,-0.45791 -1.07764,-1.01758 z m 136.35547,-6.10546 c -0.34589,-0.55967 -0.14396,-1.01758 0.44873,-1.01758 0.5927,0 1.07764,0.45791 1.07764,1.01758 0,0.55966 -0.20193,1.01757 -0.44873,1.01757 -0.24681,0 -0.73174,-0.45791 -1.07764,-1.01757 z M 460.4541,282.88672 c 0.3459,-0.55967 0.83083,-1.01758 1.07764,-1.01758 0.2468,0 0.44873,0.45791 0.44873,1.01758 0,0.55967 -0.48494,1.01758 -1.07764,1.01758 -0.5927,0 -0.79462,-0.45791 -0.44873,-1.01758 z m 100.23145,-8.14063 c 0,-0.55966 0.48493,-1.01757 1.07763,-1.01757 0.5927,0 0.79463,0.45791 0.44873,1.01757 -0.34589,0.55967 -0.83083,1.01758 -1.07763,1.01758 -0.2468,0 -0.44873,-0.45791 -0.44873,-1.01758 z m -65.125,-2.62871 c 0,-0.88621 0.54376,-1.4299 1.20837,-1.20837 1.88681,0.62896 2.19976,2.81951 0.40279,2.81951 -0.88614,0 -1.61116,-0.72503 -1.61116,-1.61114 z M 316.9676,303.52137 c 7.04556,-7.06474 13.70432,-17.02937 16.58852,-24.82422 2.35502,-6.36465 5.62589,-22.27815 4.75755,-23.14645 -1.22492,-1.22496 -8.49489,3.76586 -15.33444,10.52695 -5.32138,5.26037 -8.18385,9.15281 -10.86468,14.77391 -3.87007,8.11468 -6.84111,20.27911 -6.84111,28.00986 v 4.69124 l 2.9152,-2.07576 c 1.60335,-1.14172 5.55389,-4.72177 8.77896,-7.95553 z m 412.16425,-9.73995 c -2.65525,-10.58515 -8.24705,-20.69693 -15.27466,-27.62155 -5.83119,-5.74575 -15.03994,-11.84563 -16.17272,-10.71286 -0.6429,0.64291 2.91335,17.6964 4.78237,22.93316 4.13031,11.57251 12.45928,23.13118 22.3502,31.0167 l 5.29526,4.22162 0.3019,-6.76068 c 0.16946,-3.79496 -0.39308,-9.53125 -1.28235,-13.07639 z m -24.459,-14.96501 c -0.34589,-0.55967 -0.14397,-1.01758 0.44873,-1.01758 0.5927,0 1.07764,0.45791 1.07764,1.01758 0,0.55966 -0.20193,1.01757 -0.44873,1.01757 -0.24681,0 -0.73174,-0.45791 -1.07764,-1.01757 z"
       id="path1" />
  </g>
</svg>
